<svg id="圖層_1" data-name="圖層 1" xmlns="http://www.w3.org/2000/svg" viewBox="0 0 563 51.91" width="564" height="53"><defs><style>.cls-1{fill:#d93b23;}.cls-2{fill:#372b23;}.cls-3{fill:#005cb9;}</style></defs><path class="cls-1" d="M126.76,8.19a6.39,6.39,0,1,1-6.39-6.4,6.4,6.4,0,0,1,6.39,6.4"/><path class="cls-1" d="M125.81,17.32H114.94c-.72,0-1.08.71-1.08,1.79V49.59c0,1.09.36,1.81,1.08,1.81h10.87c.71,0,1.07-.72,1.07-1.81V19.11c0-1.08-.36-1.79-1.07-1.79"/><path class="cls-1" d="M108.74,6.63H97.87c-.71,0-1.07.71-1.07,1.8V49.59c0,1.09.36,1.81,1.07,1.81h10.87c.72,0,1.08-.72,1.08-1.81V8.43c0-1.09-.36-1.8-1.08-1.8"/><path class="cls-1" d="M92.53,8.19a6.39,6.39,0,1,1-6.39-6.4,6.4,6.4,0,0,1,6.39,6.4"/><path class="cls-1" d="M91.57,17.32H80.69c-.7,0-1,.71-1,1.79V49.59c0,1.09.35,1.81,1,1.81H91.57c.71,0,1.07-.72,1.07-1.81V19.11c0-1.08-.36-1.79-1.07-1.79"/><path class="cls-1" d="M145.51,12.6h3.23c1,0,1.44,0,1.44-1.32V8.15c0-1.44-.48-1.54-1.68-1.54H140c-4.92,0-8.88,3.57-8.88,8.4V49.59c0,1.09.36,1.81,1.09,1.81H143c.71,0,1.07-.72,1.07-1.81V26.33c0-.82.46-1.1.88-1.1h.56v0H149c1.12,0,1.07-.36,1.07-1.08V19.69c0-.93-.41-1.08-1.32-1.08h-3.35c-1.6,0-1.57,0-1.57-1.69V14.53c0-1.72,0-1.93,1.69-1.93"/><path class="cls-1" d="M169.19,44.92h-2.07c-.48,0-.72-.37-.72-1.09V26.42c0-.82.45-1.09.88-1.09h1.92c.38,0,.57-.33.57-1.45V20.67c0-1.39-.33-1.78-1.18-1.82h-.71c-1.4,0-1.57,0-1.59-1.12h0V16.27h0v-.43c0-4.35-3.12-8-8.65-9.13a25.28,25.28,0,0,0-2.75-.1c-1.1,0-1.32.83-1.32,1.67V49.59c0,1.09.35,1.81,1.07,1.81h14.79c.72,0,1.08-.72,1.08-1.81V46.11c0-.89-.36-1.19-1.32-1.19"/><path class="cls-1" d="M56.56,40.26a6.34,6.34,0,1,1,6.52-6.35,6.42,6.42,0,0,1-6.52,6.35M74.72,21.55V19.08c0-1-.35-1.66-1.08-1.66H64.29a1.4,1.4,0,0,0-1.39,1.1v1.17c-2.79-2.46-7.07-2.27-7.07-2.27A17.08,17.08,0,0,0,38.52,33.2a.86.86,0,0,0,0,.16c0,.13,0,.24,0,.37s0,.45,0,.68,0,.52,0,.77,0,.21,0,.33l0,.4h0A17.11,17.11,0,0,0,55.83,51.4s5,.15,7.06-2.28V50.3a1.36,1.36,0,0,0,1.41,1.1h9.34c.73,0,1.08-.67,1.08-1.66V21.55Z"/><path class="cls-1" d="M32.79,47.87c-.17.89-.62,1-1,.31L15.64,18.43c-.41-.7,0-1.3.87-1.3H36.68A1.33,1.33,0,0,1,38,18.76Z"/><path class="cls-1" d="M14.13,21.17c.16-.88.62-1,1-.33L31.27,50.6c.41.72,0,1.31-.89,1.31H10.23a1.32,1.32,0,0,1-1.32-1.63Z"/><path class="cls-1" d="M8.36,13.5a2,2,0,0,1-1.87,1.59H1.33A1.29,1.29,0,0,1,0,13.5L2.13,1.58A2,2,0,0,1,4,0H9.18a1.29,1.29,0,0,1,1.3,1.58Z"/><path class="cls-1" d="M25.72,13.53a2,2,0,0,1-1.88,1.59H11.29A1.29,1.29,0,0,1,10,13.53l2.12-11.9A2,2,0,0,1,14,.05H26.53a1.3,1.3,0,0,1,1.3,1.58Z"/><path class="cls-1" d="M50.64,13.53a2,2,0,0,1-1.89,1.59H28.58a1.3,1.3,0,0,1-1.3-1.59L29.4,1.63A2,2,0,0,1,31.28.05H51.46a1.29,1.29,0,0,1,1.29,1.58Z"/><polygon class="cls-2" points="247.14 27.8 241.34 27.8 241.34 25.86 255.25 25.86 255.25 27.8 249.45 27.8 249.45 43.25 247.14 43.25 247.14 27.8"/><path class="cls-2" d="M257.19,34.55c0-3.51,1.78-7.16,6-7.16s6,3.65,6,7.16-1.79,7.16-6,7.16-6-3.66-6-7.16m-2.3,0c0,4.72,2.79,9.11,8.32,9.11s8.33-4.39,8.33-9.11-2.8-9.11-8.33-9.11-8.32,4.39-8.32,9.11"/><polygon class="cls-2" points="279.75 36.13 279.75 43.25 277.44 43.25 277.44 36.13 270.72 25.86 273.47 25.86 278.67 34.14 283.76 25.86 286.4 25.86 279.75 36.13"/><path class="cls-2" d="M287.89,34.55c0-3.51,1.77-7.16,6-7.16s6,3.65,6,7.16-1.78,7.16-6,7.16-6-3.66-6-7.16m-2.31,0c0,4.72,2.8,9.11,8.32,9.11s8.32-4.39,8.32-9.11-2.79-9.11-8.32-9.11-8.32,4.39-8.32,9.11"/><polygon class="cls-2" points="307.69 27.8 301.89 27.8 301.89 25.86 315.8 25.86 315.8 27.8 310 27.8 310 43.25 307.69 43.25 307.69 27.8"/><path class="cls-2" d="M320.59,28h.05l2.91,8.11h-5.9Zm-8,15.3H315L316.92,38h7.35l1.9,5.24h2.56l-6.79-17.39h-2.57Z"/><rect class="cls-2" x="339.21" y="25.85" width="2.31" height="17.39"/><polygon class="cls-2" points="344.69 25.86 347.14 25.86 356.3 39.95 356.35 39.95 356.35 25.86 358.55 25.86 358.55 43.24 356.01 43.24 346.93 29.29 346.88 29.29 346.88 43.24 344.69 43.24 344.69 25.86"/><path class="cls-2" d="M363.9,27.8h3.91c4.25,0,5.78,2.51,5.78,6.65,0,6.41-4.25,6.85-5.84,6.85H363.9Zm-2.31,15.45h6c5.8,0,8.35-3.3,8.35-9.11,0-5.61-3-8.28-8.35-8.28h-6Z"/><path class="cls-2" d="M391.42,37c0,4.38-2.5,6.7-6.84,6.7s-7.14-2.07-7.14-6.7V25.85h2.32V37c0,3.07,1.75,4.75,4.82,4.75S389.12,40,389.12,37V25.85h2.3Z"/><path class="cls-2" d="M404,31c-.27-2.49-1.93-3.56-4.31-3.56-2,0-3.9.7-3.9,3s2.77,2.46,5.58,3.09,5.55,1.61,5.55,5c0,3.69-3.63,5.18-6.8,5.18-3.89,0-7.18-1.9-7.18-6.14h2.19c0,2.92,2.43,4.19,5.08,4.19,2.08,0,4.39-.66,4.39-3.17s-2.77-2.79-5.54-3.41-5.59-1.4-5.59-4.59c0-3.54,3.15-5.1,6.31-5.1,3.56,0,6.26,1.68,6.41,5.51Z"/><polygon class="cls-2" points="411.99 27.8 406.19 27.8 406.19 25.86 420.1 25.86 420.1 27.8 414.3 27.8 414.3 43.25 411.99 43.25 411.99 27.8"/><path class="cls-2" d="M423.63,33.87V27.8h5.74a2.76,2.76,0,0,1,3.1,3c0,2.52-1.85,3.09-4,3.09Zm-2.32,9.38h2.32V35.81h5.64c2.24,0,2.67,1.44,2.91,3.15s0,3.58.63,4.29h2.58c-1-1.2-.87-3.1-1-4.8s-.59-3.19-2.6-3.59v0a4.19,4.19,0,0,0,3-4.41c0-2.78-2-4.55-5.28-4.55h-8.19Z"/><rect class="cls-2" x="437.88" y="25.85" width="2.31" height="17.39"/><polygon class="cls-2" points="443.38 25.86 455.38 25.86 455.38 27.8 445.7 27.8 445.7 33.33 454.73 33.33 454.73 35.28 445.7 35.28 445.7 41.3 455.46 41.3 455.46 43.24 443.38 43.24 443.38 25.86"/><path class="cls-2" d="M467.14,31c-.28-2.49-1.94-3.56-4.32-3.56-1.95,0-3.9.7-3.9,3s2.78,2.46,5.58,3.09,5.55,1.61,5.55,5c0,3.69-3.63,5.18-6.79,5.18-3.89,0-7.18-1.9-7.18-6.14h2.19c0,2.92,2.43,4.19,5.06,4.19,2.1,0,4.41-.66,4.41-3.17s-2.79-2.79-5.56-3.41-5.57-1.4-5.57-4.59c0-3.54,3.14-5.1,6.31-5.1,3.55,0,6.25,1.68,6.4,5.51Z"/><path class="cls-2" d="M493.68,41.08a6.81,6.81,0,0,1-5.57,2.57c-5.18,0-8.25-4.22-8.25-8.73,0-5.05,2.76-9.41,8.25-9.41,3.79,0,6.8,1.7,7.46,5.75h-2.31c-.46-2.62-2.58-3.81-5.15-3.81-4.2,0-5.95,3.64-5.95,7.35s2.09,6.91,5.95,6.91a5.23,5.23,0,0,0,5.57-5.64h-5.55V34.13h7.61v9.12h-1.46Z"/><path class="cls-2" d="M498.72,25.91h8.16c3.26,0,5.27,1.77,5.27,4.54,0,2.08-.92,3.81-3,4.39v0c2,.39,2.42,1.87,2.59,3.57s0,3.61,1,4.79h-2.57c-.65-.7-.28-2.57-.63-4.28s-.65-3.13-2.88-3.13H501v7.41h-2.3Zm7.12,8c2.16,0,4-.55,4-3.08a2.74,2.74,0,0,0-3.09-3H501v6Z"/><path class="cls-2" d="M522.26,25.51c5.52,0,8.31,4.36,8.31,9.07s-2.79,9.07-8.31,9.07-8.3-4.36-8.3-9.07,2.79-9.07,8.3-9.07m0,16.2c4.23,0,6-3.64,6-7.13s-1.78-7.13-6-7.13-6,3.64-6,7.13,1.76,7.13,6,7.13"/><path class="cls-2" d="M546.81,37c0,4.37-2.5,6.67-6.82,6.67-4.48,0-7.12-2.06-7.12-6.67V25.91h2.3V37c0,3.06,1.75,4.73,4.82,4.73,2.92,0,4.52-1.67,4.52-4.73V25.91h2.3Z"/><path class="cls-2" d="M550.09,25.91h7.6c3.44,0,5.31,1.92,5.31,5.12s-1.87,5.15-5.31,5.12H552.4v7.1h-2.31Zm2.31,8.3h4.51c2.6,0,3.79-1.11,3.79-3.18s-1.19-3.18-3.79-3.18H552.4Z"/><polygon class="cls-3" points="220.24 31.81 208.88 31.81 205.31 42.82 216.66 42.82 220.24 31.81"/><polygon class="cls-3" points="212.47 20.81 201.11 20.81 197.53 31.81 208.89 31.81 212.47 20.81"/><path class="cls-3" d="M218.79,26.54a6.37,6.37,0,1,1,6.37,6.37,6.37,6.37,0,0,1-6.37-6.37"/><polygon class="cls-3" points="195.1 45.77 192.85 45.77 193.12 45 198.47 45 198.21 45.77 196 45.77 193.97 51.83 193.07 51.83 195.1 45.77"/><polygon class="cls-3" points="215.78 45.77 213.53 45.77 213.79 45 219.15 45 218.89 45.77 216.68 45.77 214.65 51.83 213.75 51.83 215.78 45.77"/><path class="cls-3" d="M200.94,44.83c-2.4,0-3.5,2.21-3.86,3.54-.46,1.72-.16,3.43,1.95,3.53,1.87.09,3.19-1.27,3.87-3.5.53-1.72.13-3.57-2-3.57m-.14.73c1.55,0,1.73,1.37,1.27,2.82-.37,1.16-1.3,2.84-2.88,2.77s-1.55-1.75-1.22-2.77,1.17-2.81,2.83-2.82"/><path class="cls-3" d="M211.18,44.83c-2.41,0-3.44,2.21-3.76,3.54-.42,1.72-.07,3.43,2.05,3.53,1.87.09,3.15-1.27,3.77-3.5.47-1.72,0-3.57-2.06-3.57m-.14.73c1.54,0,1.75,1.37,1.33,2.82-.34,1.16-1.23,2.84-2.83,2.77s-1.57-1.75-1.28-2.77,1.11-2.81,2.78-2.82"/><polygon class="cls-3" points="204.2 45 204.93 48.28 207.66 45 208.8 45 205.12 49.29 204.3 51.83 203.4 51.83 204.29 49.15 203.28 45 204.2 45"/><polygon class="cls-3" points="220.66 46.35 221.1 51.83 222.01 51.83 221.38 45 220.7 45 215.72 51.83 216.67 51.83 220.66 46.35"/><polygon class="cls-3" points="221.4 49.4 217.8 49.4 217.57 50.13 221.18 50.13 221.4 49.4"/></svg>
